<?xml version="1.0" encoding="UTF-8" standalone="no"?>
<svg
   width="32"
   height="32"
   viewBox="0 0 32 32"
   version="1.1"
   id="svg4"
   sodipodi:docname="favicon_inkscape.svg"
   inkscape:export-filename="favicon.svg"
   inkscape:export-xdpi="96"
   inkscape:export-ydpi="96"
   inkscape:version="1.2.2 (b0a8486541, 2022-12-01)"
   xmlns:inkscape="http://www.inkscape.org/namespaces/inkscape"
   xmlns:sodipodi="http://sodipodi.sourceforge.net/DTD/sodipodi-0.dtd"
   xmlns="http://www.w3.org/2000/svg"
   xmlns:svg="http://www.w3.org/2000/svg">
  <defs
     id="defs8" />
  <sodipodi:namedview
     id="namedview6"
     pagecolor="#ffffff"
     bordercolor="#666666"
     borderopacity="1.0"
     inkscape:showpageshadow="2"
     inkscape:pageopacity="0.0"
     inkscape:pagecheckerboard="0"
     inkscape:deskcolor="#d1d1d1"
     showgrid="false"
     inkscape:zoom="45.84409"
     inkscape:cx="15.803564"
     inkscape:cy="10.830186"
     inkscape:window-width="2203"
     inkscape:window-height="2120"
     inkscape:window-x="0"
     inkscape:window-y="0"
     inkscape:window-maximized="1"
     inkscape:current-layer="svg4" />
  <g
     id="g1613"
     transform="matrix(1.6,0,0,1.6,3.2,0)">
    <path
       style="fill:#ffffff;fill-opacity:1;stroke:none;stroke-width:1px;stroke-linecap:butt;stroke-linejoin:miter;stroke-opacity:1"
       d="M 0.98377249,18.677579 H 14.950474 V 6.3146286 l -5.366103,-5.36610281 -8.61572142,0.03751 z"
       id="path3243"
       sodipodi:nodetypes="cccccc" />
    <path
       d="M 9,8.5982487 H 7 V 11.598249 H 4 v 2 h 3 v 3 h 2 v -3 h 3 v -2 H 9 Z M 10,0 H 2 C 0.9,0 0,0.9 0,2 v 16 c 0,1.1 0.89,2 1.99,2 H 14 c 1.1,0 2,-0.9 2,-2 V 6 Z m 4,18 H 2 V 2 h 7 v 5 h 5 z"
       id="path2"
       sodipodi:nodetypes="ccccccccccccccssssssccccccccc" />
  </g>
</svg>
